<svg width="248" height="38" fill="none" xmlns="http://www.w3.org/2000/svg"><path fill-rule="evenodd" clip-rule="evenodd" d="M86.945 12.917c-1.023 1.039-2.396 1.469-4.32 1.469-1.922 0-3.31-.438-4.295-1.47-1.295-1.406-2.017-3.11-2.017-5.625 0-2.392.73-4.267 2.017-5.455C79.322.79 80.78.36 82.626.36c1.845 0 3.288.438 4.32 1.47 1.364 1.195 1.984 3.07 1.992 5.462 0 2.516-.636 4.22-1.993 5.626zm-1.66-2.048c.559-.851.939-1.977.947-3.578 0-1.423-.388-2.556-.946-3.415-.683-.852-1.567-1.204-2.668-1.204-1.101 0-1.946.336-2.536 1.204-.706.852-.985 1.985-.985 3.415 0 1.601.28 2.734.985 3.578.597.68 1.466 1.204 2.544 1.204s1.985-.524 2.667-1.204h-.007z" fill="#fff"/><path d="M73.98.703v13.378h-2.513V4.993l.003-.3c.002-.19.005-.438.005-.778 0-.22.005-.474.01-.689v-.004c.003-.156.005-.292.005-.378L68.9 14.081h-2.582L63.806 2.837c0 .21 0 .687.015 1.078V14.08h-2.575V.703h4.04l2.358 10.471 2.35-10.47h3.986zm20.038 10.565c-.202-.258-.419-.805-.496-1.313l-.008.008h-2.621c0 1.32.488 2.415 1.411 3.243 1.024.828 2.443 1.156 4.11 1.156 1.776 0 3.048-.336 3.994-1.172.915-.86 1.341-1.867 1.341-3.055-.008-1.164-.325-2.102-1.163-2.79-.45-.344-1.225-.617-2.257-.812l-2.256-.649c-.93-.164-1.582-.32-1.83-.453-.357-.375-.605-.672-.605-1.07 0-.595.248-.93.605-1.353.496-.234 1.039-.367 1.822-.367.582 0 1.179.094 1.582.29.682.445.977.921 1.024 1.765h2.714c-.062-1.344-.636-2.414-1.598-3.211C98.78.68 97.577.367 96.205.367c-1.722 0-2.978.336-3.862 1.165-.807.843-1.28 1.844-1.28 3.008 0 1.266.512 2.25 1.303 2.758.582.485 1.574.766 2.924 1.032l1.403.437c.853.157 1.497.32 1.83.516.427.211.629.664.629 1.024.007.797-.458 1.227-1.156 1.64-.473.11-.97.188-1.66.188-1.1-.008-1.938-.242-2.318-.867z" fill="#fff"/><path fill-rule="evenodd" clip-rule="evenodd" d="M123.817 1.164c.442.18.923.438 1.21.782.096.143.187.272.272.392.183.259.338.477.449.717.14.516.194.899.194 1.516 0 .532-.124 1.22-.457 1.72-.349.703-.807 1.062-1.582 1.445.667.203 1.031.492 1.271 1.047.295.375.45 1.125.45 2.094v.735c0 .61.031.956.06 1.275l.01.108c.078.281.233.492.45.633v.453h-3.025a16.57 16.57 0 00-.178-.735l-.008-.03a6.861 6.861 0 01-.1-1.142l-.016-1.195c-.008-.891-.132-1.524-.395-1.758-.349-.243-.807-.36-1.606-.36h-2.628v5.236h-2.738V.727h6.305c.922.008 1.589.11 2.078.453l-.016-.016zm-5.645 5.494h2.931c.582 0 .97-.047 1.342-.18.473-.383.752-.797.752-1.586 0-.844-.279-1.305-.721-1.54-.365-.304-.745-.375-1.311-.375h-2.993v3.68zm40.124-3.962c-.527-.852-1.272-1.313-2.21-1.618l-.008-.008c-.566-.289-1.202-.367-2.047-.367h-5.63v13.37h5.63c2.001 0 3.42-.867 4.397-2.586.744-1.204 1.039-2.65 1.039-4.462 0-.758-.054-1.368-.209-2.188-.132-.813-.473-1.407-.962-2.141zm-7.297 8.94v-8.66h2.621c1.241 0 2.071.492 2.458 1.078.427.782.621 1.837.621 3.142-.008.992-.117 1.867-.427 2.625-.465 1.258-1.372 1.813-2.644 1.813h-2.629z" fill="#fff"/><path d="M179.405 2.211c1.062-1.133 2.427-1.719 4.024-1.719 2.211 0 3.816.79 4.839 2.188.512.868.869 1.735.892 2.415h-2.784c-.155-.532-.333-1.11-.636-1.383-.519-.47-1.271-.891-2.179-.891-.977 0-1.737.523-2.349 1.188-.528.875-.853 2-.853 3.602 0 1.422.325 2.524.891 3.313.644.625 1.419 1.11 2.303 1.11.885 0 1.652-.446 2.164-.985.287-.281.504-.89.636-1.625h2.784c-.279 1.555-.838 2.711-1.83 3.649-.985.914-2.187 1.305-3.722 1.305-1.854 0-3.389-.688-4.428-1.883-1.117-1.204-1.567-2.79-1.567-4.93-.008-2.478.551-4.135 1.815-5.361v.007zm54.59-1.508h-3.955l-2.389 10.471-2.373-10.47h-4.017V14.08h2.567V4.993c0-.088-.002-.187-.005-.308a27.89 27.89 0 01-.01-.77V2.836l2.512 11.245h2.59l2.552-11.244-.003.39v.007l-.001.004v.014l-.002.276-.002.387c0 .337-.006.579-.01.766v.003l-.001.003c-.002.118-.005.214-.005.298v9.096h2.552V.703z" fill="#fff"/><path fill-rule="evenodd" clip-rule="evenodd" d="M70.94 20.723c1.125.328 2.079 1.11 2.854 2.172.559.891.993 1.829 1.171 2.813.171.844.256 1.806.256 2.735 0 2.259-.364 4.22-1.28 5.884-1.17 2.134-3.062 3.212-5.497 3.212H61.27V20.403h7.165c1.016.03 1.846.125 2.505.328v-.008zm-6.35 2.516v11.276h3.18c1.705 0 2.853-.86 3.419-2.618.41-.758.59-1.852.59-3.25 0-1.641-.257-2.939-.83-3.892-.474-.945-1.52-1.516-3.172-1.516H64.59zm40.556 14.691c2.326 0 4.164-.735 5.404-2.024 1.714-1.555 2.482-4.04 2.482-6.955 0-3.157-.76-5.642-2.482-7.134-1.232-1.29-3.078-2.024-5.404-2.024-2.335 0-4.18.735-5.39 2.024-1.76 1.492-2.52 3.985-2.52 7.134 0 2.915.76 5.4 2.52 6.955 1.202 1.297 3.055 2.024 5.39 2.024zm4.435-8.979c0 1.79-.341 3.384-1.179 4.423-.837 1.055-1.923 1.493-3.256 1.493-1.334 0-2.435-.438-3.257-1.493-.853-1.04-1.21-2.633-1.21-4.423-.008-1.961.357-3.555 1.21-4.602.822-1.063 1.938-1.5 3.257-1.5 1.318 0 2.419.437 3.256 1.5.838 1.055 1.179 2.64 1.179 4.602z" fill="#fff"/><path d="M115.815 20.512h3.459v10.377c0 1.32.139 2.048.473 2.673.38.984 1.31 1.375 2.706 1.375 1.435 0 2.311-.39 2.73-1.375.233-.625.341-1.352.341-2.673V20.512h3.552v10.37c0 1.875-.287 3.414-.791 4.266-1.001 1.899-2.97 2.844-5.832 2.844-2.861 0-4.777-.938-5.777-2.844-.613-.852-.861-2.391-.861-4.267V20.512z" fill="#fff"/><path fill-rule="evenodd" clip-rule="evenodd" d="M144.367 21.958c-.426-.446-.954-.961-1.566-1.188l-.008.015c-.589-.218-1.481-.335-2.582-.375h-7.895v17.137h3.397v-6.845h3.35c.962-.008 1.574.148 1.985.625.303.312.473 1.094.504 2.172v1.508c0 .4.053.723.109 1.064.027.163.055.332.077.515.049.146.097.34.175.652l.073.293h3.761v-.539c-.31-.188-.511-.461-.589-.992-.054-.235-.085-.852-.085-1.508V33.35c0-1.172-.225-2.087-.535-2.767-.256-.476-.861-1.023-1.551-1.297.876-.273 1.512-.906 1.876-1.742.45-.665.636-1.508.636-2.36 0-.735-.093-1.243-.294-1.86-.202-.438-.535-1-.838-1.367zm-8.654 6.009v-4.728h3.769c.721 0 1.264.086 1.62.43.613.305.97 1.07.97 2.102 0 .813-.357 1.508-1.001 1.805-.387.32-.93.39-1.713.39h-3.645zm25.344 7.939c-1.326 1.297-3.063 2.024-5.428 2.024-2.427 0-4.164-.735-5.444-2.024-1.644-1.555-2.52-4.04-2.52-6.955 0-3.157.876-5.642 2.52-7.134 1.288-1.29 3.009-2.024 5.444-2.024 2.365 0 4.102.735 5.428 2.024 1.606 1.492 2.459 3.977 2.459 7.127 0 2.922-.853 5.407-2.459 6.962zm-2.202-2.532c.752-1.04 1.225-2.633 1.225-4.423 0-1.961-.473-3.547-1.225-4.602-.791-1.063-1.869-1.508-3.226-1.5-1.434 0-2.52.437-3.303 1.5-.791 1.047-1.264 2.64-1.264 4.602 0 1.79.48 3.384 1.264 4.423.791 1.055 1.876 1.493 3.303 1.493 1.365 0 2.443-.438 3.234-1.493h-.008zm19.741-2.039c1.807 0 3.203-.516 4.157-1.227h.007c.931-.883 1.427-2.266 1.427-4.282 0-1.9-.496-3.212-1.442-4.134-.954-.914-2.272-1.29-3.916-1.29h-7.158V37.54h3.474v-6.204h3.451zm-.349-8.088c.752.008 1.427.195 1.815.656.496.305.713 1.04.713 1.938 0 .758-.217 1.47-.713 1.813-.388.516-1.063.696-1.815.696h-3.102v-5.103h3.102zm20.128-1.463l.176.174c.335.36.577.887.775 1.316l.023.051c.256.617.365 1.125.365 1.86 0 .852-.233 1.696-.651 2.36a2.99 2.99 0 01-1.986 1.734c.814.282 1.365.82 1.691 1.305.287.665.395 1.587.403 2.767v1.133c0 .656.031 1.289.085 1.516.132.539.365.804.706.992v.531h-3.838l-.055-.229-.068-.28-.001-.003c-.046-.19-.079-.325-.101-.433l-.021-.185v-.002a11.577 11.577 0 01-.096-1.4l-.031-1.508c0-1.078-.186-1.86-.574-2.172-.333-.477-.969-.633-1.915-.633h-3.389v6.853h-3.42V20.403h7.957c1.14.039 1.985.156 2.574.375l.008-.008c.56.197.985.62 1.383 1.014zm-8.502 6.175h3.715c.744-.008 1.264-.07 1.651-.399.644-.297.985-.992.978-1.805 0-1.031-.326-1.79-.923-2.102-.403-.336-.877-.43-1.613-.43h-3.808v4.736zm50.256 9.971c2.342 0 4.157-.735 5.413-2.024h.008c1.651-1.555 2.45-4.04 2.45-6.955 0-3.149-.791-5.642-2.45-7.126-1.264-1.297-3.064-2.032-5.421-2.032s-4.172.742-5.42 2.032c-1.691 1.485-2.552 3.977-2.552 7.126.008 2.915.869 5.4 2.552 6.955 1.248 1.297 3.063 2.024 5.42 2.024zm4.443-8.979c0 1.79-.403 3.384-1.194 4.423h.008c-.83 1.055-1.884 1.493-3.265 1.493-1.38 0-2.504-.438-3.288-1.493-.806-1.04-1.209-2.633-1.209-4.423 0-1.953.403-3.555 1.209-4.602.784-1.063 1.908-1.493 3.288-1.493 1.342 0 2.428.43 3.257 1.493.791 1.055 1.194 2.649 1.194 4.602z" fill="#fff"/><path d="M113.498.703l.008 2.313h-3.862v11.065h-2.799V3.016h-4.017V.703h10.67z" fill="#fff"/><path fill-rule="evenodd" clip-rule="evenodd" d="M135.474.703h-3.133l-4.653 13.378h2.792l.915-2.805h4.901l.86 2.805h2.947L135.474.703zm.062 8.307h-3.335l1.675-5.244 1.66 5.244z" fill="#fff"/><path d="M171.486 3.008l-6.948.008V5.9h6.382v2.28h-6.382v3.368h7.289v2.532h-10.019V.703l9.678.008v2.297zM191.127.703h2.684v13.378h-2.684V.703zm5.089 0h2.87l5.226 9.322V.704h2.567v13.378h-2.737l-5.343-9.447v9.447h-2.583V.703zm15.695 2.313h7.01V.711l-9.623-.008-.008 13.378h9.934l-.008-2.524h-7.305V8.181h6.406v-2.29h-6.398l-.008-2.875z" fill="#fff"/><path fill-rule="evenodd" clip-rule="evenodd" d="M240.261.703h3.141l4.583 13.378h-2.939l-.845-2.805h-4.87l-.9 2.805h-2.869l4.692-13.37.007-.008zm3.203 8.307l-1.706-5.244-1.652 5.244h3.358z" fill="#fff"/><path d="M81.407 23.286h8.708v-2.883l-12.066-.008.008 17.136H90.58V34.43h-9.174v-4.384h8.065V27.03h-8.065v-3.743zm133.48 0h-8.747v3.743h7.995v3.016h-7.995v4.376l9.151.008v3.102h-12.516V20.403h12.104l.008 2.883zm15.79 0v-2.891l-13.438.008v2.883h4.994l.007 14.245h3.436V23.286h5.001z" fill="#fff"/><path fill-rule="evenodd" clip-rule="evenodd" d="M20.083 28.74l6.848-.758c.17 1.407.604 2.446 1.31 3.118.706.68 1.636 1.016 2.792 1.016 1.458 0 2.698-.672 3.722-2.032 1.023-1.351 1.675-4.157 1.962-8.423-1.776 2.078-4.002 3.117-6.67 3.117-2.907 0-5.404-1.133-7.513-3.383-2.11-2.258-3.156-5.196-3.156-8.814 0-3.618 1.108-6.814 3.334-9.12C24.938 1.157 27.768 0 31.212 0c3.737 0 6.808 1.461 9.212 4.376 2.396 2.915 3.598 7.712 3.598 14.393 0 6.682-1.249 11.706-3.753 14.715C37.764 36.492 34.514 38 30.498 38c-2.885 0-5.22-.774-6.995-2.32-1.776-1.548-2.924-3.861-3.42-6.94zM36.09 13.16c0-2.297-.528-4.087-1.575-5.353-1.046-1.266-2.264-1.899-3.636-1.899-1.373 0-2.397.516-3.257 1.563-.869 1.04-1.295 2.743-1.295 5.11 0 2.368.473 4.166 1.411 5.29.938 1.126 2.117 1.689 3.52 1.689 1.404 0 2.505-.54 3.436-1.626.93-1.086 1.396-2.672 1.396-4.766v-.008z" fill="#fff"/><path d="M0 7.119v4.844h8.46v24.998h7.243V.71H9.802c0 .32-.085.805-.272 1.453-.31 1.087-.775 1.954-1.388 2.603-.891.945-2.047 1.578-3.466 1.898-.892.204-2.45.352-4.676.454z" fill="#fff"/><path fill-rule="evenodd" clip-rule="evenodd" d="M51.065 4.134c.248-.032.457-.094.62-.211a.553.553 0 00.248-.485c0-.406-.217-.68-.643-.828-.248-.086-.59-.133-1.016-.133-.489 0-.846.094-1.086.29-.24.195-.403.484-.504.874h-2.319c.109-.781.342-1.398.714-1.844.612-.719 1.66-1.078 3.133-1.078 1.085 0 1.915.101 2.489.312 1.055.391 1.582 1.235 1.582 2.532v4.18c0 .337.03.618.1.852.07.227.21.383.427.462v.468h-2.574a3.32 3.32 0 01-.148-.445 2.176 2.176 0 01-.054-.54c-.465.392-.853.665-1.163.83a3.84 3.84 0 01-1.815.429c-1.217 0-2.07-.367-2.559-1.11-.294-.422-.442-.922-.442-1.508 0-.93.365-1.649 1.094-2.149.48-.328 1.217-.555 2.218-.68l1.706-.218h-.008zm.868 1.117c-.163.102-.318.18-.45.227a3.475 3.475 0 01-.635.133l-.644.093c-.66.094-1.117.25-1.373.47a1.028 1.028 0 00-.387.82c0 .351.124.61.372.789.248.18.558.266.946.266.318 0 .66-.07 1.024-.204.232-.109.426-.218.558-.336.17-.117.31-.265.403-.437.093-.172.155-.5.186-.97v-.85z" fill="#fff"/><path d="M54.143 10.588h-7.437v1.665h7.437v-1.665z" fill="#fff"/></svg>