<?xml version="1.0" encoding="UTF-8" standalone="no"?>
<!-- Created with Inkscape (http://www.inkscape.org/) -->

<svg
   width="76.263313mm"
   height="29.829643mm"
   viewBox="0 0 76.263312 29.829643"
   version="1.1"
   id="svg664"
   xmlns="http://www.w3.org/2000/svg"
   xmlns:svg="http://www.w3.org/2000/svg">
  <defs
     id="defs661">
    <clipPath
       clipPathUnits="userSpaceOnUse"
       id="clipPath2644">
      <path
         d="M 0,0 H 396.85 V 226.772 H 0 Z"
         id="path2642" />
    </clipPath>
    <clipPath
       clipPathUnits="userSpaceOnUse"
       id="clipPath2668">
      <path
         d="M 0,0 H 396.85 V 226.772 H 0 Z"
         id="path2666" />
    </clipPath>
    <clipPath
       clipPathUnits="userSpaceOnUse"
       id="clipPath2786">
      <path
         d="M 0,0 H 396.85 V 226.772 H 0 Z"
         id="path2784" />
    </clipPath>
  </defs>
  <g
     id="layer1"
     transform="translate(492.59485,-240.93831)">
    <g
       id="g3823"
       transform="matrix(0.35277777,0,0,-0.35277777,-608.97834,172.1238)">
      <g
         id="g2638"
         transform="matrix(3.628566,0,0,3.628566,0,-596.08516)">
        <g
           id="g2640"
           clip-path="url(#clipPath2644)">
          <g
             id="g2646"
             transform="translate(130.15,104.4456)">
            <path
               d="M 0,0 C 0,0.502 0.049,0.985 0.156,1.458 0.278,1.934 0.468,2.359 0.718,2.744 0.962,3.096 1.281,3.382 1.693,3.602 2.093,3.828 2.58,3.96 3.148,3.961 3.725,3.96 4.214,3.828 4.609,3.602 5.023,3.382 5.335,3.096 5.58,2.744 5.837,2.359 6.016,1.934 6.13,1.458 6.245,0.986 6.305,0.501 6.305,0 6.306,-0.48 6.245,-0.953 6.13,-1.419 6.016,-1.874 5.837,-2.255 5.58,-2.638 5.335,-3.019 5.023,-3.308 4.609,-3.533 4.214,-3.752 3.725,-3.843 3.149,-3.844 2.58,-3.843 2.093,-3.752 1.693,-3.533 1.281,-3.307 0.962,-3.019 0.718,-2.637 0.468,-2.255 0.278,-1.874 0.156,-1.419 0.049,-0.954 0,-0.48 0,0 m -2.555,0 c 0,-0.817 0.134,-1.626 0.393,-2.357 0.258,-0.718 0.618,-1.32 1.11,-1.888 0.487,-0.525 1.094,-0.957 1.802,-1.255 0.71,-0.293 1.499,-0.456 2.399,-0.456 0.909,0 1.701,0.162 2.407,0.456 0.704,0.297 1.307,0.731 1.799,1.256 0.487,0.567 0.852,1.169 1.112,1.887 C 8.732,-1.626 8.858,-0.816 8.858,0 8.858,0.874 8.732,1.654 8.466,2.382 8.207,3.119 7.842,3.774 7.355,4.31 6.864,4.883 6.26,5.29 5.556,5.613 4.85,5.921 4.058,6.072 3.148,6.072 2.249,6.072 1.46,5.921 0.751,5.613 0.042,5.291 -0.565,4.883 -1.052,4.309 -1.544,3.775 -1.905,3.119 -2.162,2.382 -2.421,1.653 -2.555,0.874 -2.555,0"
               style="fill:#ffffff;fill-opacity:1;fill-rule:nonzero;stroke:none"
               id="path2648" />
          </g>
        </g>
      </g>
      <g
         id="g2650"
         transform="matrix(3.628566,0,0,3.628566,374.56779,-237.21636)">
        <path
           d="M 0,0 H 1.072 V 11.091 H 0.001 Z"
           style="fill:#ffffff;fill-opacity:1;fill-rule:nonzero;stroke:none"
           id="path2652" />
      </g>
      <g
         id="g2654"
         transform="matrix(3.628566,0,0,3.628566,387.55842,-196.97085)">
        <path
           d="m 0,0 v -11.091 l 1.068,-0.001 -0.001,9.378 0.025,10e-4 6.548,-9.378 H 8.834 L 8.835,0 H 7.752 V -9.39 H 7.722 L 1.193,0 Z"
           style="fill:#ffffff;fill-opacity:1;fill-rule:nonzero;stroke:none"
           id="path2656" />
      </g>
      <g
         id="g2658"
         transform="matrix(3.628566,0,0,3.628566,428.04415,-196.97085)">
        <path
           d="m 0,0 v -11.091 h 7.816 v 0.911 H 1.069 v 4.371 l 6.24,-10e-4 v 0.908 h -6.24 l 0.001,4.018 h 6.673 v 0.885 z"
           style="fill:#ffffff;fill-opacity:1;fill-rule:nonzero;stroke:none"
           id="path2660" />
      </g>
      <g
         id="g2662"
         transform="matrix(3.628566,0,0,3.628566,0,-596.08516)">
        <g
           id="g2664"
           clip-path="url(#clipPath2668)">
          <g
             id="g2670"
             transform="translate(99.8089,106.6242)">
            <path
               d="M 0,0 H 1.081 C 0.991,0.604 0.82,1.112 0.528,1.561 c -0.272,0.45 -0.605,0.803 -1.026,1.132 -0.418,0.299 -0.88,0.532 -1.39,0.675 -0.499,0.16 -1.007,0.238 -1.545,0.238 -0.883,0 -1.651,-0.149 -2.324,-0.489 C -6.425,2.812 -6.962,2.377 -7.41,1.849 -7.854,1.328 -8.173,0.699 -8.39,0 c -0.229,-0.695 -0.353,-1.423 -0.353,-2.183 0,-0.761 0.126,-1.486 0.353,-2.182 0.217,-0.701 0.535,-1.331 0.98,-1.849 0.447,-0.52 0.985,-0.955 1.653,-1.264 0.673,-0.336 1.44,-0.467 2.324,-0.467 0.657,0 1.256,0.089 1.781,0.299 0.543,0.212 1.004,0.499 1.414,0.898 0.412,0.36 0.721,0.825 0.97,1.406 0.251,0.536 0.427,1.167 0.486,1.861 H 0.166 c -0.056,-0.535 -0.18,-1.004 -0.378,-1.407 -0.18,-0.433 -0.438,-0.824 -0.734,-1.135 -0.293,-0.303 -0.67,-0.555 -1.069,-0.751 -0.422,-0.197 -0.892,-0.274 -1.418,-0.273 -0.746,-0.001 -1.378,0.115 -1.922,0.392 -0.545,0.272 -0.987,0.658 -1.319,1.117 -0.323,0.468 -0.589,0.982 -0.747,1.587 -0.169,0.571 -0.238,1.186 -0.237,1.768 0,0.628 0.068,1.205 0.237,1.807 0.16,0.563 0.424,1.075 0.747,1.534 0.332,0.47 0.774,0.86 1.319,1.132 0.544,0.275 1.176,0.428 1.923,0.428 0.388,10e-4 0.791,-0.089 1.158,-0.195 0.374,-0.133 0.717,-0.276 1.028,-0.505 0.3,-0.23 0.561,-0.507 0.771,-0.87 C -0.251,0.829 -0.085,0.435 0,0"
               style="fill:#ffffff;fill-opacity:1;fill-rule:nonzero;stroke:none"
               id="path2672" />
          </g>
          <g
             id="g2674"
             transform="translate(143.7942,104.846)">
            <path
               d="M 0,0 V 3.428 H 1.992 C 2.288,3.428 2.566,3.411 2.833,3.373 3.104,3.336 3.338,3.229 3.549,3.119 3.758,2.982 3.928,2.838 4.035,2.611 4.178,2.382 4.238,2.098 4.237,1.714 4.238,1.333 4.177,1.045 4.035,0.816 3.928,0.591 3.757,0.443 3.549,0.297 3.338,0.196 3.104,0.089 2.832,0.053 2.566,0.019 2.288,0 1.992,-0.001 Z M -2.549,5.407 V -6.102 H 0 v 4.144 h 2.688 c 0.729,0 1.343,0.09 1.855,0.299 0.514,0.218 0.921,0.489 1.246,0.819 0.319,0.363 0.553,0.729 0.694,1.178 C 6.63,0.79 6.702,1.252 6.702,1.715 6.703,2.187 6.63,2.648 6.483,3.093 6.342,3.538 6.109,3.904 5.789,4.271 5.463,4.599 5.057,4.87 4.543,5.076 4.029,5.293 3.417,5.407 2.688,5.407 Z"
               style="fill:#ffffff;fill-opacity:1;fill-rule:nonzero;stroke:none"
               id="path2676" />
          </g>
          <g
             id="g2678"
             transform="translate(109.0197,95.8189)">
            <path
               d="M 0,0 H 0.926 V -3.087 H 0.341 v 2.098 c 0,0.05 0.002,0.12 0.002,0.248 10e-4,0.089 0.004,0.2 0.003,0.248 l -0.603,-2.594 h -0.6 l -0.584,2.595 c 0,-0.05 0.002,-0.16 0.004,-0.249 0.001,-0.128 0.002,-0.198 0.002,-0.247 L -1.436,-3.087 H -2.034 V 0 h 0.94 l 0.548,-2.416 z"
               style="fill:#ffffff;fill-opacity:1;fill-rule:nonzero;stroke:none"
               id="path2680" />
          </g>
          <g
             id="g2682"
             transform="translate(112.9584,93.0003)">
            <path
               d="m 0,0 c -0.237,-0.239 -0.557,-0.339 -1.004,-0.339 -0.43,0 -0.77,0.101 -1,0.34 -0.3,0.323 -0.469,0.718 -0.469,1.298 0.002,0.551 0.169,0.985 0.469,1.259 0.232,0.242 0.57,0.341 1,0.341 0.448,0 0.766,-0.101 1.004,-0.34 C 0.317,2.284 0.462,1.85 0.464,1.299 0.462,0.719 0.317,0.324 0,0 m -0.384,0.472 c 0.131,0.196 0.219,0.457 0.22,0.826 0,0.329 -0.089,0.59 -0.22,0.789 -0.158,0.197 -0.365,0.277 -0.621,0.277 -0.248,0 -0.452,-0.077 -0.589,-0.277 -0.164,-0.197 -0.228,-0.459 -0.229,-0.788 0,-0.37 0.065,-0.632 0.229,-0.827 0.138,-0.157 0.341,-0.277 0.59,-0.277 0.255,0 0.462,0.12 0.62,0.277"
               style="fill:#ffffff;fill-opacity:1;fill-rule:nonzero;stroke:none"
               id="path2684" />
          </g>
          <g
             id="g2686"
             transform="translate(114.49,93.685)">
            <path
               d="m 0,0 c 0.018,-0.117 0.069,-0.243 0.116,-0.303 0.087,-0.145 0.283,-0.198 0.538,-0.2 0.161,0 0.276,0.018 0.387,0.044 0.163,0.095 0.271,0.195 0.269,0.378 C 1.312,0.002 1.264,0.106 1.165,0.155 1.087,0.201 0.936,0.239 0.739,0.274 L 0.414,0.375 c -0.315,0.061 -0.545,0.127 -0.68,0.238 -0.185,0.118 -0.303,0.344 -0.304,0.636 0,0.269 0.11,0.499 0.298,0.694 0.206,0.191 0.498,0.268 0.898,0.268 C 0.945,2.21 1.225,2.139 1.459,1.954 1.682,1.769 1.816,1.523 1.83,1.212 H 1.198 C 1.187,1.407 1.12,1.516 0.96,1.619 0.866,1.664 0.728,1.686 0.593,1.686 0.41,1.685 0.285,1.655 0.169,1.601 0.087,1.504 0.03,1.425 0.03,1.288 0.03,1.196 0.087,1.127 0.169,1.042 0.227,1.01 0.379,0.976 0.594,0.937 L 1.12,0.789 C 1.359,0.743 1.54,0.679 1.645,0.602 1.839,0.442 1.913,0.226 1.914,-0.042 c 0,-0.274 -0.098,-0.507 -0.311,-0.704 -0.22,-0.194 -0.516,-0.27 -0.929,-0.27 -0.389,0 -0.718,0.076 -0.955,0.267 C -0.496,-0.558 -0.61,-0.306 -0.61,0 Z"
               style="fill:#ffffff;fill-opacity:1;fill-rule:nonzero;stroke:none"
               id="path2688" />
          </g>
          <g
             id="g2690"
             transform="translate(121.5362,95.7145)">
            <path
               d="m 0,0 c 0.103,-0.041 0.214,-0.101 0.282,-0.179 0.071,-0.105 0.131,-0.176 0.168,-0.257 0.032,-0.12 0.045,-0.208 0.045,-0.35 0,-0.123 -0.029,-0.282 -0.108,-0.397 C 0.306,-1.345 0.2,-1.428 0.019,-1.516 0.173,-1.564 0.26,-1.631 0.315,-1.758 0.383,-1.845 0.418,-2.018 0.418,-2.242 v -0.17 c 0,-0.156 0.01,-0.238 0.017,-0.319 0.017,-0.065 0.054,-0.114 0.105,-0.146 v -0.104 l -0.703,-0.001 c -0.022,0.096 -0.035,0.143 -0.044,0.178 -0.014,0.072 -0.024,0.185 -0.024,0.264 l -0.004,0.276 c -0.002,0.205 -0.03,0.351 -0.093,0.406 -0.081,0.056 -0.187,0.084 -0.373,0.084 h -0.612 v -1.208 h -0.636 l -0.002,3.086 h 1.467 C -0.269,0.102 -0.113,0.079 0,0 m -1.313,-0.421 v -0.848 l 0.682,-0.001 c 0.135,0 0.225,0.012 0.312,0.043 0.109,0.088 0.175,0.183 0.175,0.367 0,0.195 -0.064,0.301 -0.167,0.354 -0.086,0.071 -0.174,0.087 -0.306,0.087 z"
               style="fill:#ffffff;fill-opacity:1;fill-rule:nonzero;stroke:none"
               id="path2692" />
          </g>
          <g
             id="g2694"
             transform="translate(129.0399,95.7334)">
            <path
               d="m 0,0 c 0.219,-0.07 0.392,-0.177 0.514,-0.374 0.115,-0.17 0.193,-0.307 0.225,-0.495 0.036,-0.189 0.048,-0.33 0.048,-0.505 0,-0.419 -0.068,-0.753 -0.242,-1.031 -0.227,-0.396 -0.557,-0.596 -1.022,-0.596 h -1.309 v 3.086 l 1.309,0.002 C -0.28,0.084 -0.133,0.068 0,0 m -1.183,-0.438 v -1.998 h 0.611 c 0.296,0 0.507,0.127 0.616,0.417 0.072,0.176 0.098,0.378 0.098,0.607 0,0.301 -0.044,0.544 -0.143,0.725 -0.09,0.136 -0.283,0.249 -0.572,0.249 z"
               style="fill:#ffffff;fill-opacity:1;fill-rule:nonzero;stroke:none"
               id="path2696" />
          </g>
          <g
             id="g2698"
             transform="translate(134.4618,95.4715)">
            <path
               d="m 0,0 c 0.247,0.262 0.565,0.397 0.936,0.397 0.514,0 0.887,-0.183 1.124,-0.505 0.12,-0.2 0.201,-0.4 0.208,-0.558 H 1.621 C 1.584,-0.543 1.543,-0.41 1.472,-0.346 1.351,-0.239 1.176,-0.14 0.966,-0.14 0.739,-0.139 0.561,-0.261 0.42,-0.415 0.297,-0.616 0.221,-0.876 0.222,-1.246 0.221,-1.574 0.298,-1.828 0.43,-2.011 c 0.15,-0.145 0.331,-0.256 0.536,-0.256 0.204,0 0.383,0.103 0.503,0.226 0.067,0.065 0.116,0.205 0.147,0.376 L 2.264,-1.666 C 2.199,-2.024 2.068,-2.291 1.838,-2.508 1.609,-2.719 1.329,-2.81 0.972,-2.81 c -0.431,10e-4 -0.788,0.158 -1.029,0.436 -0.26,0.278 -0.365,0.643 -0.365,1.137 C -0.424,-0.666 -0.294,-0.283 0,0"
               style="fill:#ffffff;fill-opacity:1;fill-rule:nonzero;stroke:none"
               id="path2700" />
          </g>
          <g
             id="g2702"
             transform="translate(146.2392,95.8189)">
            <path
               d="M 0,0 0.92,-0.001 0.921,-3.087 H 0.328 v 2.099 c 0,0.051 0.003,0.119 0.003,0.247 0,0.089 0.003,0.2 0.003,0.249 l -0.593,-2.595 h -0.603 l -0.585,2.595 v -0.249 c 0.002,-0.128 0.004,-0.196 0.004,-0.248 l 0.001,-2.098 H -2.04 V 0 h 0.934 l 0.551,-2.417 z"
               style="fill:#ffffff;fill-opacity:1;fill-rule:nonzero;stroke:none"
               id="path2704" />
          </g>
          <g
             id="g2706"
             transform="translate(109.2397,91.1992)">
            <path
               d="m 0,0 c 0.261,-0.075 0.484,-0.255 0.663,-0.501 0.13,-0.206 0.231,-0.421 0.272,-0.65 0.039,-0.194 0.059,-0.417 0.06,-0.631 0,-0.521 -0.084,-0.973 -0.298,-1.358 -0.273,-0.492 -0.713,-0.74 -1.278,-0.74 h -1.668 v 3.955 h 1.667 C -0.346,0.068 -0.153,0.046 0,0 m -1.477,-0.581 v -2.602 h 0.738 c 0.398,0 0.664,0.199 0.796,0.604 0.096,0.176 0.136,0.427 0.136,0.75 0,0.378 -0.06,0.678 -0.193,0.898 -0.11,0.218 -0.353,0.35 -0.738,0.351 z"
               style="fill:#ffffff;fill-opacity:1;fill-rule:nonzero;stroke:none"
               id="path2708" />
          </g>
          <g
             id="g2710"
             transform="translate(118.4495,87.6954)">
            <path
               d="M 0,0 C -0.288,-0.298 -0.716,-0.467 -1.257,-0.467 -1.801,-0.466 -2.23,-0.299 -2.511,0 -2.92,0.358 -3.096,0.932 -3.096,1.605 c 10e-4,0.727 0.176,1.302 0.585,1.646 0.281,0.298 0.71,0.467 1.253,0.468 0.542,0 0.97,-0.17 1.258,-0.468 C 0.4,2.907 0.577,2.332 0.577,1.605 0.577,0.932 0.399,0.359 0,0 m -0.499,0.584 c 0.194,0.24 0.273,0.608 0.273,1.021 0,0.452 -0.079,0.819 -0.273,1.062 -0.196,0.246 -0.451,0.346 -0.758,0.346 -0.31,0 -0.567,-0.1 -0.758,-0.346 C -2.214,2.424 -2.297,2.057 -2.296,1.605 -2.297,1.192 -2.214,0.824 -2.015,0.584 -1.824,0.341 -1.567,0.24 -1.257,0.24 c 0.307,0 0.563,0.101 0.758,0.344"
               style="fill:#ffffff;fill-opacity:1;fill-rule:nonzero;stroke:none"
               id="path2712" />
          </g>
          <g
             id="g2714"
             transform="translate(119.6736,91.2486)">
            <path
               d="M 0,0 H 0.806 L 0.805,-2.395 c 0,-0.304 0.034,-0.472 0.111,-0.616 0.088,-0.227 0.304,-0.317 0.629,-0.317 0.333,-0.001 0.537,0.09 0.635,0.317 0.055,0.144 0.079,0.312 0.079,0.616 V 0 H 3.085 L 3.086,-2.394 C 3.086,-2.827 3.019,-3.181 2.9,-3.378 2.667,-3.817 2.21,-4.034 1.545,-4.034 c -0.654,0 -1.111,0.217 -1.344,0.656 -0.141,0.197 -0.2,0.551 -0.2,0.984 z"
               style="fill:#ffffff;fill-opacity:1;fill-rule:nonzero;stroke:none"
               id="path2716" />
          </g>
          <g
             id="g2718"
             transform="translate(125.9509,91.1875)">
            <path
               d="m 0,0 c 0.143,-0.052 0.266,-0.172 0.364,-0.273 0.07,-0.086 0.148,-0.216 0.195,-0.316 0.047,-0.143 0.068,-0.259 0.068,-0.43 0,-0.197 -0.043,-0.391 -0.148,-0.544 -0.086,-0.192 -0.233,-0.339 -0.437,-0.401 0.161,-0.064 0.301,-0.19 0.361,-0.3 0.073,-0.156 0.124,-0.367 0.124,-0.639 V -3.166 C 0.528,-3.317 0.533,-3.46 0.547,-3.515 0.565,-3.637 0.611,-3.7 0.684,-3.743 V -3.867 H -0.19 c -0.028,0.113 -0.044,0.175 -0.058,0.219 -0.017,0.13 -0.043,0.227 -0.043,0.365 v 0.349 c -0.008,0.249 -0.047,0.43 -0.117,0.501 -0.095,0.109 -0.237,0.147 -0.462,0.145 h -0.778 v -1.579 l -0.789,-0.002 v 3.956 h 1.836 C -0.345,0.077 -0.136,0.052 0,0 M -1.648,-0.569 V -1.66 l 0.848,10e-4 c 0.182,0 0.308,0.016 0.399,0.09 0.15,0.068 0.232,0.23 0.232,0.417 0,0.238 -0.082,0.414 -0.226,0.484 -0.083,0.079 -0.209,0.099 -0.378,0.099 z"
               style="fill:#ffffff;fill-opacity:1;fill-rule:nonzero;stroke:none"
               id="path2720" />
          </g>
          <g
             id="g2722"
             transform="translate(130.1945,87.6954)">
            <path
               d="M 0,0 C -0.309,-0.299 -0.712,-0.466 -1.262,-0.467 -1.827,-0.466 -2.23,-0.298 -2.528,0 c -0.383,0.358 -0.586,0.932 -0.586,1.605 0,0.728 0.203,1.302 0.586,1.646 0.299,0.298 0.7,0.468 1.266,0.468 C -0.712,3.718 -0.309,3.55 0,3.251 0.374,2.907 0.571,2.332 0.571,1.606 0.57,0.932 0.373,0.358 0,0 m -0.511,0.584 c 0.176,0.24 0.285,0.608 0.285,1.021 0,0.452 -0.109,0.819 -0.284,1.062 -0.184,0.246 -0.434,0.347 -0.751,0.346 -0.332,0 -0.586,-0.1 -0.768,-0.346 -0.183,-0.243 -0.294,-0.61 -0.294,-1.062 0,-0.413 0.111,-0.781 0.293,-1.021 0.183,-0.243 0.437,-0.344 0.768,-0.344 0.318,0 0.568,0.101 0.751,0.344"
               style="fill:#ffffff;fill-opacity:1;fill-rule:nonzero;stroke:none"
               id="path2724" />
          </g>
          <g
             id="g2726"
             transform="translate(135.2416,89.0346)">
            <path
               d="M 0,0 C -0.222,-0.164 -0.547,-0.284 -0.967,-0.283 H -1.77 V -1.714 H -2.578 V 2.24 h 1.664 C -0.532,2.239 -0.225,2.153 -0.003,1.942 0.216,1.729 0.332,1.426 0.332,0.988 0.332,0.522 0.216,0.204 0,0 m -0.626,1.432 c -0.09,0.107 -0.247,0.15 -0.422,0.152 H -1.769 L -1.77,0.406 h 0.722 c 0.175,0 0.332,0.041 0.422,0.161 0.116,0.08 0.166,0.245 0.165,0.418 0,0.208 -0.05,0.378 -0.165,0.447"
               style="fill:#ffffff;fill-opacity:1;fill-rule:nonzero;stroke:none"
               id="path2728" />
          </g>
          <g
             id="g2730"
             transform="translate(138.5523,91.1875)">
            <path
               d="m 0,0 c 0.15,-0.053 0.257,-0.172 0.363,-0.273 0.082,-0.086 0.139,-0.215 0.186,-0.316 0.059,-0.143 0.085,-0.26 0.086,-0.43 0,-0.197 -0.055,-0.391 -0.151,-0.545 -0.082,-0.191 -0.242,-0.339 -0.462,-0.4 0.189,-0.064 0.317,-0.19 0.393,-0.301 0.067,-0.154 0.091,-0.367 0.093,-0.639 v -0.261 c 0,-0.152 0.007,-0.297 0.019,-0.35 0.031,-0.124 0.085,-0.185 0.164,-0.229 v -0.123 h -0.892 c -0.026,0.113 -0.044,0.175 -0.053,0.218 -0.015,0.131 -0.026,0.227 -0.026,0.366 l -0.008,0.349 c 0,0.248 -0.043,0.43 -0.134,0.501 -0.077,0.109 -0.225,0.147 -0.446,0.147 L -1.656,-2.288 V -3.867 H -2.45 l -10e-4,3.953 1.852,0.001 C -0.335,0.077 -0.139,0.052 0,0 m -1.656,-0.569 v -1.09 l 0.865,-10e-4 c 0.174,0.002 0.293,0.017 0.384,0.091 0.15,0.068 0.228,0.23 0.227,0.417 0,0.238 -0.075,0.413 -0.215,0.484 -0.094,0.078 -0.204,0.099 -0.376,0.099 z"
               style="fill:#ffffff;fill-opacity:1;fill-rule:nonzero;stroke:none"
               id="path2732" />
          </g>
          <g
             id="g2734"
             transform="translate(149.8417,87.6954)">
            <path
               d="m 0,0 c -0.293,-0.298 -0.714,-0.466 -1.26,-0.467 -0.548,0.001 -0.97,0.168 -1.261,0.467 -0.392,0.359 -0.592,0.932 -0.593,1.605 10e-4,0.727 0.2,1.302 0.593,1.646 0.291,0.297 0.713,0.468 1.261,0.468 0.546,0 0.967,-0.17 1.26,-0.468 C 0.385,2.907 0.571,2.332 0.571,1.605 0.57,0.932 0.385,0.358 0,0 m -0.502,0.584 c 0.184,0.24 0.278,0.608 0.278,1.021 0,0.451 -0.094,0.819 -0.278,1.062 C -0.695,2.913 -0.947,3.012 -1.26,3.012 -1.58,3.013 -1.843,2.913 -2.025,2.667 -2.213,2.424 -2.306,2.056 -2.306,1.605 c 0,-0.413 0.093,-0.781 0.281,-1.021 0.182,-0.243 0.444,-0.344 0.765,-0.344 0.313,0 0.565,0.101 0.758,0.344"
               style="fill:#ffffff;fill-opacity:1;fill-rule:nonzero;stroke:none"
               id="path2736" />
          </g>
        </g>
      </g>
      <g
         id="g2738"
         transform="matrix(3.628566,0,0,3.628566,432.29284,-248.39996)">
        <path
           d="m 0,0 0.001,-0.532 -0.898,-0.001 v -2.554 h -0.65 v 2.555 h -0.935 v 0.533 z"
           style="fill:#ffffff;fill-opacity:1;fill-rule:nonzero;stroke:none"
           id="path2740" />
      </g>
      <g
         id="g2742"
         transform="matrix(3.628566,0,0,3.628566,448.19829,-248.39887)">
        <path
           d="M 0,0 0.726,-0.001 1.804,-3.087 H 1.119 l -0.2,0.648 h -1.14 l -0.213,-0.648 h -0.649 z m -0.033,-1.917 h 0.775 l -0.385,1.211 z"
           style="fill:#ffffff;fill-opacity:1;fill-rule:nonzero;stroke:none"
           id="path2744" />
      </g>
      <g
         id="g2746"
         transform="matrix(3.628566,0,0,3.628566,481.2255,-250.33036)">
        <path
           d="m 0,0 -1.617,-0.001 10e-4,-0.665 h 1.484 V -1.193 H -1.617 V -1.971 H 0.079 V -2.554 H -2.252 V 0.532 L 0,0.531 Z"
           style="fill:#ffffff;fill-opacity:1;fill-rule:nonzero;stroke:none"
           id="path2748" />
      </g>
      <path
         d="m 497.80297,-259.60098 h 2.26785 v 11.19775 h -2.26785 z"
         style="fill:#ffffff;fill-opacity:1;fill-rule:nonzero;stroke:none;stroke-width:3.62857"
         id="path2750" />
      <g
         id="g2752"
         transform="matrix(3.628566,0,0,3.628566,502.09229,-248.39996)">
        <path
           d="M 0,0 0.668,0.001 1.882,-2.15 1.883,0 H 2.48 V -3.087 H 1.842 L 0.6,-0.906 V -3.087 H 0 Z"
           style="fill:#ffffff;fill-opacity:1;fill-rule:nonzero;stroke:none"
           id="path2754" />
      </g>
      <g
         id="g2756"
         transform="matrix(3.628566,0,0,3.628566,521.25439,-250.33254)">
        <path
           d="m 0,0 h -1.63 v -0.664 h 1.488 l 0.001,-0.529 H -1.63 V -1.971 H 0.068 L 0.069,-2.554 H -2.24 l 0.001,3.087 2.238,-0.001 z"
           style="fill:#ffffff;fill-opacity:1;fill-rule:nonzero;stroke:none"
           id="path2758" />
      </g>
      <g
         id="g2760"
         transform="matrix(3.628566,0,0,3.628566,539.26042,-248.39887)">
        <path
           d="M 0,0 H 0.731 L 1.797,-3.087 H 1.113 l -0.196,0.648 h -1.132 l -0.209,-0.647 -0.668,-0.001 z m -0.034,-1.917 h 0.78 L 0.35,-0.706 Z"
           style="fill:#ffffff;fill-opacity:1;fill-rule:nonzero;stroke:none"
           id="path2762" />
      </g>
      <g
         id="g2764"
         transform="matrix(3.628566,0,0,3.628566,412.56251,-267.30769)">
        <path
           d="M 0,0 H -2.025 L -2.026,-0.864 -0.15,-0.865 V -1.559 H -2.026 V -2.571 H 0.109 V -3.288 H -2.804 L -2.805,0.666 H 0 Z"
           style="fill:#ffffff;fill-opacity:1;fill-rule:nonzero;stroke:none"
           id="path2766" />
      </g>
      <g
         id="g2768"
         transform="matrix(3.628566,0,0,3.628566,517.84753,-267.30769)">
        <path
           d="m 0,0 h -2.034 l 10e-4,-0.865 h 1.858 V -1.56 h -1.859 v -1.01 l 2.129,-0.001 v -0.717 h -2.911 v 3.954 h 2.814 z"
           style="fill:#ffffff;fill-opacity:1;fill-rule:nonzero;stroke:none"
           id="path2770" />
      </g>
      <g
         id="g2772"
         transform="matrix(3.628566,0,0,3.628566,531.16944,-264.88962)">
        <path
           d="m 0,0 0.001,-0.666 h -1.163 l -0.001,-3.289 h -0.798 l -0.002,3.289 h -1.161 l -10e-4,0.665 z"
           style="fill:#ffffff;fill-opacity:1;fill-rule:nonzero;stroke:none"
           id="path2774" />
      </g>
      <g
         id="g2776"
         transform="matrix(3.628566,0,0,3.628566,373.81596,-258.07118)">
        <path
           d="M 0,0 H 1.729 L 1.728,0.383 0,0.384 Z"
           style="fill:#ffffff;fill-opacity:1;fill-rule:nonzero;stroke:none"
           id="path2778" />
      </g>
      <g
         id="g2780"
         transform="matrix(3.628566,0,0,3.628566,0,-596.08516)">
        <g
           id="g2782"
           clip-path="url(#clipPath2786)">
          <g
             id="g2788"
             transform="translate(104.0332,95.0274)">
            <path
               d="m 0,0 c 0.058,0.006 0.106,0.022 0.144,0.049 0.039,0.027 0.058,0.065 0.058,0.113 0,0.094 -0.05,0.157 -0.151,0.191 -0.057,0.02 -0.136,0.03 -0.236,0.03 -0.113,0 -0.197,-0.022 -0.253,-0.067 C -0.493,0.271 -0.532,0.203 -0.556,0.114 h -0.539 c 0.025,0.181 0.08,0.323 0.166,0.425 0.143,0.166 0.386,0.248 0.728,0.248 0.253,0 0.446,-0.023 0.579,-0.071 0.245,-0.09 0.369,-0.285 0.369,-0.585 v -0.964 c 0,-0.078 0.008,-0.143 0.024,-0.196 0.016,-0.052 0.049,-0.088 0.098,-0.106 V -1.243 H 0.271 c -0.014,0.034 -0.026,0.069 -0.034,0.103 -0.01,0.035 -0.014,0.077 -0.014,0.124 -0.108,-0.089 -0.198,-0.153 -0.27,-0.191 -0.128,-0.066 -0.269,-0.099 -0.422,-0.099 -0.283,0 -0.482,0.085 -0.596,0.255 -0.067,0.098 -0.102,0.213 -0.102,0.347 0,0.216 0.085,0.381 0.254,0.497 0.112,0.076 0.284,0.128 0.517,0.156 z M 0.202,-0.258 C 0.163,-0.282 0.129,-0.299 0.098,-0.31 0.067,-0.321 0.017,-0.332 -0.051,-0.341 l -0.15,-0.022 c -0.153,-0.022 -0.26,-0.058 -0.319,-0.107 -0.06,-0.05 -0.09,-0.113 -0.09,-0.189 0,-0.08 0.029,-0.14 0.086,-0.181 0.057,-0.041 0.131,-0.061 0.22,-0.061 0.073,0 0.153,0.016 0.238,0.047 0.055,0.024 0.098,0.05 0.13,0.078 0.04,0.028 0.072,0.062 0.095,0.102 0.022,0.04 0.036,0.115 0.043,0.224 z"
               style="fill:#ffffff;fill-opacity:1;fill-rule:nonzero;stroke:none"
               id="path2790" />
          </g>
          <g
             id="g2792"
             transform="translate(96.6541,89.0452)">
            <path
               d="m 0,0 v -1.52 h -5.735 c 0.062,0.575 0.248,1.119 0.559,1.634 0.31,0.514 0.924,1.196 1.84,2.046 0.737,0.687 1.189,1.153 1.356,1.398 0.225,0.337 0.338,0.671 0.338,1.001 0,0.365 -0.098,0.645 -0.294,0.841 -0.196,0.196 -0.467,0.294 -0.812,0.294 -0.342,0 -0.614,-0.103 -0.815,-0.308 C -3.765,5.18 -3.882,4.838 -3.913,4.361 l -1.63,0.163 c 0.097,0.9 0.402,1.547 0.914,1.939 0.513,0.392 1.153,0.588 1.922,0.588 0.842,0 1.504,-0.227 1.985,-0.681 C -0.241,5.916 0,5.351 0,4.675 0,4.291 -0.069,3.925 -0.207,3.578 -0.345,3.23 -0.563,2.867 -0.862,2.486 -1.06,2.234 -1.417,1.871 -1.933,1.397 -2.449,0.924 -2.776,0.609 -2.914,0.454 -3.052,0.299 -3.164,0.147 -3.249,0 Z"
               style="fill:#ffffff;fill-opacity:1;fill-rule:nonzero;stroke:none"
               id="path2794" />
          </g>
          <g
             id="g2796"
             transform="translate(101.7892,87.5307)">
            <path
               d="M 0,0 H -1.635 V 6.162 C -2.233,5.604 -2.937,5.191 -3.747,4.923 v 1.484 c 0.426,0.139 0.89,0.404 1.39,0.794 0.501,0.39 0.844,0.845 1.03,1.364 H 0 Z"
               style="fill:#ffffff;fill-opacity:1;fill-rule:nonzero;stroke:none"
               id="path2798" />
          </g>
        </g>
      </g>
    </g>
  </g>
</svg>
