<?xml version="1.0" encoding="UTF-8" standalone="no"?>
<!-- Created with Inkscape (http://www.inkscape.org/) -->

<svg
   width="186.81708mm"
   height="284.37051mm"
   viewBox="0 0 186.81708 284.37051"
   version="1.1"
   id="svg664"
   xmlns="http://www.w3.org/2000/svg"
   xmlns:svg="http://www.w3.org/2000/svg">
  <defs
     id="defs661" />
  <g
     id="layer1"
     transform="translate(339.68791,-67.708836)">
    <g
       id="g2496"
       transform="matrix(1.2800774,0,0,-1.2800774,-152.87085,352.07931)">
      <path
         d="m 0,0 v 215.562 c 0,3.639 -2.95,6.589 -6.589,6.589 h -132.764 c -3.639,0 -6.589,-2.95 -6.589,-6.589 V 0 h 11.421 v 27.248 c 0,3.639 2.95,6.589 6.589,6.589 H -18.01 c 3.639,0 6.589,-2.95 6.589,-6.589 V 0 Z m -11.421,139.155 c 0,-3.639 -2.95,-6.59 -6.589,-6.59 h -109.922 c -3.639,0 -6.589,2.951 -6.589,6.59 v 61.499 c 0,3.639 2.95,6.589 6.589,6.589 H -18.01 c 3.639,0 6.589,-2.95 6.589,-6.589 z"
         style="fill:#ef4136;fill-opacity:1;fill-rule:nonzero;stroke:none"
         id="path2498" />
    </g>
  </g>
</svg>
