<svg width="248" height="38" viewBox="0 0 248 38" fill="none" xmlns="http://www.w3.org/2000/svg">
<path fill-rule="evenodd" clip-rule="evenodd" d="M86.9451 12.9167C85.9215 13.956 84.5489 14.3858 82.6257 14.3858C80.7026 14.3858 79.3145 13.9482 78.3297 12.9167C77.0346 11.5102 76.3134 9.80672 76.3134 7.29057C76.3134 4.89946 77.0424 3.02407 78.3297 1.83633C79.3222 0.789244 80.7801 0.359462 82.6257 0.359462C84.4713 0.359462 85.9137 0.797053 86.9451 1.82851C88.3099 3.02407 88.9302 4.89946 88.938 7.29057C88.938 9.80672 88.3021 11.5102 86.9451 12.9167ZM85.2856 10.8694C85.8439 10.0177 86.2239 8.89247 86.2316 7.29057C86.2316 5.86841 85.8439 4.73536 85.2856 3.87581C84.6032 3.02408 83.7191 2.67244 82.618 2.67244C81.5168 2.67244 80.6716 3.00845 80.0822 3.87581C79.3765 4.72755 79.0974 5.86059 79.0974 7.29057C79.0974 8.89247 79.3765 10.0255 80.0822 10.8694C80.6793 11.5493 81.5478 12.0728 82.6257 12.0728C83.7036 12.0728 84.6109 11.5493 85.2933 10.8694H85.2856Z" fill="white"/>
<path d="M73.9795 0.703241V14.081H71.467V4.99318C71.467 4.90878 71.4682 4.8116 71.4696 4.6922C71.4719 4.50222 71.4748 4.25497 71.4748 3.91484C71.4748 3.69466 71.4799 3.44091 71.4843 3.22637L71.4843 3.22445L71.4844 3.22241C71.4876 3.06552 71.4903 2.92993 71.4903 2.84431L68.9003 14.081H66.318L63.8055 2.8365C63.8055 3.04747 63.8055 3.52413 63.821 3.91484V14.081H61.2464V0.703241H65.2866L67.644 11.1741L69.9937 0.703241H73.9795Z" fill="white"/>
<path d="M94.0179 11.2679C93.8162 11.0101 93.5991 10.4631 93.5216 9.95515L93.5138 9.96296H90.8928C90.8928 11.2835 91.3813 12.3775 92.3041 13.2058C93.3277 14.0341 94.7468 14.3623 96.4141 14.3623C98.1899 14.3623 99.4616 14.0263 100.408 13.1902C101.323 12.3306 101.749 11.3226 101.749 10.1349C101.741 8.97057 101.424 8.03288 100.586 7.34524C100.136 7.00141 99.3608 6.72792 98.3295 6.53257L96.0729 5.884C95.1423 5.7199 94.4909 5.56362 94.2427 5.43078C93.886 5.0557 93.6379 4.75877 93.6379 4.36025C93.6379 3.76638 93.886 3.43037 94.2427 3.00841C94.739 2.77398 95.2819 2.64115 96.0651 2.64115C96.6467 2.64115 97.2438 2.73491 97.6471 2.93026C98.3295 3.37566 98.6241 3.85233 98.6707 4.69626H101.385C101.323 3.35223 100.749 2.2817 99.7873 1.48466C98.7792 0.679809 97.5773 0.367239 96.2047 0.367239C94.4832 0.367239 93.2269 0.70325 92.3429 1.53154C91.5364 2.37547 91.0634 3.37568 91.0634 4.53998C91.0634 5.80586 91.5752 6.79044 92.3661 7.29835C92.9477 7.78283 93.9403 8.06414 95.2896 8.32982L96.6932 8.7674C97.5462 8.92368 98.1899 9.08778 98.5233 9.28314C98.9498 9.49412 99.1515 9.94734 99.1515 10.3068C99.1592 11.1038 98.6939 11.5336 97.996 11.9477C97.523 12.0571 97.0267 12.1353 96.3365 12.1353C95.2354 12.1275 94.3978 11.8931 94.0179 11.2679Z" fill="white"/>
<path fill-rule="evenodd" clip-rule="evenodd" d="M123.817 1.1643C124.259 1.34403 124.74 1.60188 125.027 1.9457C125.123 2.08944 125.214 2.21825 125.299 2.33835C125.482 2.59695 125.637 2.8152 125.748 3.05531C125.888 3.57105 125.942 3.95393 125.942 4.57125C125.942 5.10261 125.818 5.79024 125.485 6.29035C125.136 6.99362 124.678 7.35307 123.903 7.73596C124.57 7.93913 124.934 8.22825 125.174 8.78305C125.469 9.15813 125.624 9.90828 125.624 10.8772V11.6118C125.624 12.2224 125.655 12.5682 125.684 12.8871L125.694 12.9949C125.772 13.2762 125.927 13.4871 126.144 13.6278V14.081H123.119C123.033 13.695 122.98 13.4922 122.941 13.3462L122.933 13.3152C122.871 13.0027 122.833 12.5104 122.833 12.1744L122.817 10.9788C122.809 10.088 122.685 9.45506 122.422 9.22064C122.073 8.9784 121.615 8.86119 120.816 8.86119H118.188V14.0966H115.45V0.726706H121.755C122.677 0.734522 123.344 0.836107 123.833 1.17993L123.817 1.1643ZM118.172 6.65761H121.103C121.685 6.65761 122.073 6.61073 122.445 6.47789C122.918 6.095 123.197 5.68086 123.197 4.89163C123.197 4.0477 122.918 3.58667 122.476 3.35225C122.111 3.0475 121.731 2.97717 121.165 2.97717H118.172V6.65761Z" fill="white"/>
<path fill-rule="evenodd" clip-rule="evenodd" d="M158.296 2.69584C157.769 1.84411 157.024 1.38307 156.086 1.07832L156.078 1.0705C155.512 0.78138 154.876 0.703241 154.031 0.703241H148.401V14.0732H154.031C156.032 14.0732 157.451 13.2058 158.428 11.4867C159.172 10.2833 159.467 8.83773 159.467 7.02486C159.467 6.26689 159.413 5.65739 159.258 4.8369C159.126 4.02424 158.785 3.43037 158.296 2.69584ZM150.999 11.6352V2.97715H153.62C154.861 2.97715 155.691 3.46944 156.078 4.05549C156.505 4.83691 156.699 5.89181 156.699 7.19676C156.691 8.18915 156.582 9.06433 156.272 9.8223C155.807 11.0804 154.9 11.6352 153.628 11.6352H150.999Z" fill="white"/>
<path d="M179.405 2.21139C180.467 1.07835 181.832 0.492293 183.429 0.492293C185.64 0.492293 187.245 1.28151 188.268 2.68024C188.78 3.54761 189.137 4.41497 189.16 5.0948H186.376C186.221 4.56344 186.043 3.98519 185.74 3.7117C185.221 3.24286 184.469 2.82089 183.561 2.82089C182.584 2.82089 181.824 3.34444 181.212 4.00864C180.684 4.88382 180.359 6.00905 180.359 7.61095C180.359 9.03311 180.684 10.1349 181.25 10.9241C181.894 11.5493 182.669 12.0337 183.553 12.0337C184.438 12.0337 185.205 11.5883 185.717 11.0491C186.004 10.7678 186.221 10.1583 186.353 9.42382H189.137C188.858 10.9788 188.299 12.1353 187.307 13.073C186.322 13.9873 185.12 14.378 183.585 14.378C181.731 14.378 180.196 13.6903 179.157 12.4948C178.04 11.2914 177.59 9.70512 177.59 7.56406C177.582 5.08699 178.141 3.43039 179.405 2.20358V2.21139Z" fill="white"/>
<path d="M233.995 0.703241H230.04L227.651 11.1741L225.278 0.703241H221.261V14.081H223.828V4.99318C223.828 4.90482 223.826 4.80578 223.823 4.68492C223.818 4.49582 223.813 4.25332 223.813 3.91484V2.8365L226.325 14.081H228.915L231.467 2.8365C231.467 2.92638 231.465 3.06592 231.464 3.22609V3.23363L231.463 3.23783V3.24152L231.463 3.25277L231.461 3.5277C231.46 3.65894 231.459 3.79211 231.459 3.91484C231.459 4.25199 231.453 4.49392 231.449 4.68096L231.449 4.6842L231.448 4.68698C231.446 4.80495 231.443 4.90097 231.443 4.98537V14.081H233.995V0.703241Z" fill="white"/>
<path fill-rule="evenodd" clip-rule="evenodd" d="M70.9407 20.723C72.0651 21.0512 73.019 21.8326 73.7944 22.8953C74.3527 23.7861 74.787 24.7238 74.9654 25.7084C75.136 26.5523 75.2212 27.5135 75.2212 28.4433C75.2212 30.7016 74.8568 32.6629 73.9417 34.3274C72.7708 36.4606 70.8787 37.539 68.4437 37.539H61.2707V20.4026H68.4359C69.4518 20.4339 70.2816 20.5276 70.9407 20.7308V20.723ZM64.5897 23.2391V34.5149H67.7691C69.4751 34.5149 70.6228 33.6553 71.1889 31.8972C71.5999 31.1392 71.7782 30.0452 71.7782 28.6465C71.7782 27.0055 71.5223 25.7084 70.9485 24.7551C70.4754 23.8096 69.4286 23.2391 67.7768 23.2391H64.5897Z" fill="white"/>
<path fill-rule="evenodd" clip-rule="evenodd" d="M105.146 37.9297C107.472 37.9297 109.31 37.1952 110.55 35.9058C112.264 34.3508 113.032 31.8659 113.032 28.9513C113.032 25.7944 112.272 23.3095 110.55 21.817C109.318 20.5277 107.472 19.7931 105.146 19.7931C102.811 19.7931 100.966 20.5277 99.7561 21.817C97.9958 23.3095 97.2358 25.8022 97.2358 28.9513C97.2358 31.8659 97.9958 34.3508 99.7561 35.9058C100.958 37.203 102.811 37.9297 105.146 37.9297ZM109.581 28.9513C109.581 30.7407 109.24 32.3348 108.402 33.3741C107.565 34.429 106.479 34.8666 105.146 34.8666C103.812 34.8666 102.711 34.429 101.889 33.3741C101.036 32.3348 100.679 30.7407 100.679 28.9513C100.671 26.9899 101.036 25.3959 101.889 24.3488C102.711 23.286 103.827 22.8485 105.146 22.8485C106.464 22.8485 107.565 23.286 108.402 24.3488C109.24 25.4037 109.581 26.9899 109.581 28.9513Z" fill="white"/>
<path d="M115.815 20.512H119.274V30.8892C119.274 32.2098 119.413 32.9365 119.747 33.5616C120.127 34.5462 121.057 34.9369 122.453 34.9369C123.888 34.9369 124.764 34.5462 125.183 33.5616C125.416 32.9365 125.524 32.2098 125.524 30.8892V20.512H129.076V30.8813C129.076 32.7567 128.789 34.2961 128.285 35.1478C127.284 37.0467 125.315 37.9922 122.453 37.9922C119.592 37.9922 117.676 37.0545 116.676 35.1478C116.063 34.2961 115.815 32.7567 115.815 30.8813V20.512Z" fill="white"/>
<path fill-rule="evenodd" clip-rule="evenodd" d="M144.367 21.9576C143.941 21.5122 143.413 20.9965 142.801 20.7699L142.793 20.7855C142.204 20.5667 141.312 20.4495 140.211 20.4104H132.316V37.5468H135.713V30.7016H139.063C140.025 30.6938 140.637 30.8501 141.048 31.3267C141.351 31.6393 141.521 32.4207 141.552 33.4991V35.0072C141.552 35.4079 141.605 35.7304 141.661 36.0706C141.688 36.2345 141.716 36.4027 141.738 36.5856C141.787 36.732 141.835 36.926 141.913 37.2383C141.935 37.326 141.959 37.4232 141.986 37.5311H145.747V36.992C145.437 36.8044 145.236 36.5309 145.158 35.9996C145.104 35.7651 145.073 35.1478 145.073 34.4915V33.3506C145.073 32.1785 144.848 31.2642 144.538 30.5844C144.282 30.1077 143.677 29.5608 142.987 29.2873C143.863 29.0138 144.499 28.3808 144.863 27.5447C145.313 26.8805 145.499 26.0366 145.499 25.1849C145.499 24.4503 145.406 23.9424 145.205 23.3251C145.003 22.8875 144.67 22.3249 144.367 21.9576ZM135.713 27.9667V23.2391H139.482C140.203 23.2391 140.746 23.3251 141.102 23.6689C141.715 23.9737 142.072 24.7395 142.072 25.7709C142.072 26.5836 141.715 27.279 141.071 27.576C140.684 27.8964 140.141 27.9667 139.358 27.9667H135.713Z" fill="white"/>
<path fill-rule="evenodd" clip-rule="evenodd" d="M161.057 35.9058C159.731 37.203 157.994 37.9297 155.629 37.9297C153.202 37.9297 151.465 37.1952 150.185 35.9058C148.541 34.3508 147.665 31.8659 147.665 28.9513C147.665 25.7944 148.541 23.3095 150.185 21.817C151.473 20.5277 153.194 19.7931 155.629 19.7931C157.994 19.7931 159.731 20.5277 161.057 21.817C162.663 23.3095 163.516 25.7944 163.516 28.9435C163.516 31.8659 162.663 34.3508 161.057 35.9058ZM158.855 33.3741C159.607 32.3348 160.08 30.7407 160.08 28.9513C160.08 26.9899 159.607 25.4037 158.855 24.3488C158.064 23.286 156.986 22.8406 155.629 22.8485C154.195 22.8485 153.109 23.286 152.326 24.3488C151.535 25.3959 151.062 26.9899 151.062 28.9513C151.062 30.7407 151.542 32.3348 152.326 33.3741C153.117 34.429 154.202 34.8666 155.629 34.8666C156.994 34.8666 158.072 34.429 158.863 33.3741H158.855Z" fill="white"/>
<path fill-rule="evenodd" clip-rule="evenodd" d="M178.596 31.3346C180.403 31.3346 181.799 30.8188 182.753 30.1077H182.76C183.691 29.2248 184.187 27.8416 184.187 25.8256C184.187 23.9268 183.691 22.614 182.745 21.6919C181.791 20.7777 180.473 20.4026 178.829 20.4026H171.671V37.539H175.145V31.3346H178.596ZM178.247 23.247C178.999 23.2548 179.674 23.4423 180.062 23.9033C180.558 24.2081 180.775 24.9426 180.775 25.8412C180.775 26.5992 180.558 27.3103 180.062 27.6541C179.674 28.1698 178.999 28.3496 178.247 28.3496H175.145V23.247H178.247Z" fill="white"/>
<path fill-rule="evenodd" clip-rule="evenodd" d="M198.375 21.7841C198.434 21.8428 198.492 21.9009 198.551 21.9576C198.886 22.3181 199.128 22.8446 199.326 23.2735L199.349 23.3251C199.605 23.9424 199.714 24.4503 199.714 25.1849C199.714 26.0366 199.481 26.8805 199.063 27.5447C198.714 28.373 198.023 29.0138 197.077 29.2794C197.891 29.5608 198.442 30.0999 198.768 30.5844C199.055 31.2486 199.163 32.1707 199.171 33.3506V34.4836C199.171 35.14 199.202 35.773 199.256 35.9996C199.388 36.5387 199.621 36.8044 199.962 36.992V37.5233H196.124C196.104 37.4408 196.086 37.3646 196.069 37.2941C196.043 37.1886 196.021 37.0959 196.001 37.0135L196 37.0108C195.954 36.8211 195.921 36.6864 195.899 36.5778L195.878 36.3933L195.878 36.3913C195.825 35.9126 195.782 35.5254 195.782 34.9916L195.751 33.4834C195.751 32.4051 195.565 31.6237 195.177 31.3111C194.844 30.8344 194.208 30.6782 193.262 30.6782H189.873V37.5311H186.453V20.4026H194.41C195.55 20.4417 196.395 20.5589 196.984 20.7777L196.992 20.7699C197.552 20.9671 197.977 21.3894 198.375 21.7841ZM189.873 27.9589H193.588C194.332 27.9511 194.852 27.8885 195.239 27.5603C195.883 27.2634 196.224 26.568 196.217 25.7553C196.217 24.7238 195.891 23.9659 195.294 23.6533C194.891 23.3173 194.417 23.2235 193.681 23.2235H189.873V27.9589Z" fill="white"/>
<path fill-rule="evenodd" clip-rule="evenodd" d="M240.129 37.9297C242.471 37.9297 244.286 37.1952 245.542 35.9058H245.55C247.201 34.3508 248 31.8659 248 28.9513C248 25.8022 247.209 23.3095 245.55 21.8248C244.286 20.5277 242.486 19.7931 240.129 19.7931C237.772 19.7931 235.957 20.5355 234.709 21.8248C233.018 23.3095 232.157 25.8022 232.157 28.9513C232.165 31.8659 233.026 34.3508 234.709 35.9058C235.957 37.203 237.772 37.9297 240.129 37.9297ZM244.572 28.9513C244.572 30.7407 244.169 32.3348 243.378 33.3741H243.386C242.556 34.429 241.502 34.8666 240.121 34.8666C238.741 34.8666 237.617 34.429 236.833 33.3741C236.027 32.3348 235.624 30.7407 235.624 28.9513C235.624 26.9978 236.027 25.3959 236.833 24.3488C237.617 23.286 238.741 22.8563 240.121 22.8563C241.463 22.8563 242.549 23.286 243.378 24.3488C244.169 25.4037 244.572 26.9978 244.572 28.9513Z" fill="white"/>
<path d="M113.498 0.703241L113.506 3.01621H109.644V14.081H106.845V3.01621H102.828V0.703241H113.498Z" fill="white"/>
<path fill-rule="evenodd" clip-rule="evenodd" d="M135.474 0.703241H132.341L127.688 14.081H130.48L131.395 11.2757H136.296L137.156 14.081H140.103L135.474 0.703241ZM135.536 9.00964H132.201L133.876 3.76636L135.536 9.00964Z" fill="white"/>
<path d="M171.486 3.0084L164.538 3.01621V5.89962H170.92V8.18134H164.538V11.5492H171.827V14.081H161.808V0.703241L171.486 0.711057V3.0084Z" fill="white"/>
<path d="M191.127 0.703241H193.811V14.081H191.127V0.703241Z" fill="white"/>
<path d="M196.216 0.703241H199.086L204.312 10.0255V0.703241H206.879V14.081H204.142L198.799 4.63373V14.081H196.216V0.703241Z" fill="white"/>
<path d="M211.911 3.01621H218.921V0.711057L209.298 0.703241L209.29 14.081H219.224L219.216 11.557H211.911V8.18134H218.317V5.8918H211.919L211.911 3.01621Z" fill="white"/>
<path fill-rule="evenodd" clip-rule="evenodd" d="M240.261 0.703241H243.402L247.985 14.081H245.046L244.201 11.2757H239.331L238.431 14.081H235.562L240.254 0.711057L240.261 0.703241ZM243.464 9.00964L241.758 3.76636L240.106 9.00964H243.464Z" fill="white"/>
<path d="M81.4069 23.286H90.1154V20.4026L78.0492 20.3948L78.0569 37.5311H90.5806V34.4289H81.4069V30.0452H89.4717V27.029H81.4069V23.286Z" fill="white"/>
<path d="M214.887 23.286H206.14V27.029H214.135V30.0452H206.14V34.4211L215.291 34.4289V37.5311H202.775V20.4026H214.879L214.887 23.286Z" fill="white"/>
<path d="M230.677 23.286V20.3948L217.239 20.4026V23.286H222.233L222.24 37.5311H225.676V23.286H230.677Z" fill="white"/>
<path fill-rule="evenodd" clip-rule="evenodd" d="M20.0832 28.7403L26.9305 27.9823C27.1011 29.3889 27.5354 30.4281 28.241 31.1001C28.9467 31.78 29.8772 32.116 31.0327 32.116C32.4906 32.116 33.7313 31.444 34.7549 30.0843C35.7785 28.7325 36.4299 25.9272 36.7169 21.6607C34.9411 23.7393 32.7154 24.7785 30.0479 24.7785C27.1399 24.7785 24.6429 23.6455 22.5336 21.395C20.4244 19.1367 19.3775 16.1986 19.3775 12.5807C19.3775 8.96279 20.4864 5.76681 22.712 3.46165C24.9376 1.15649 27.768 0 31.2111 0C34.9488 0 38.0196 1.46124 40.4236 4.3759C42.8198 7.29056 44.0217 12.0884 44.0217 18.7695C44.0217 25.4505 42.7732 30.475 40.2685 33.4835C37.7637 36.4919 34.5145 38 30.4976 38C27.6129 38 25.2788 37.2264 23.5029 35.6792C21.7271 34.132 20.5795 31.819 20.0832 28.7403ZM36.0887 13.159C36.0887 10.8616 35.5614 9.07218 34.5145 7.8063C33.4677 6.54041 32.2502 5.90747 30.8776 5.90747C29.505 5.90747 28.4814 6.4232 27.6206 7.47028C26.7521 8.50956 26.3256 10.213 26.3256 12.5807C26.3256 14.9484 26.7987 16.7456 27.737 17.8709C28.6753 18.9961 29.854 19.5587 31.2576 19.5587C32.6612 19.5587 33.7623 19.0195 34.6929 17.9334C35.6234 16.8472 36.0887 15.2609 36.0887 13.1668V13.159Z" fill="white"/>
<path d="M0 7.11862V11.9634H8.4603V36.9607H15.7031V0.711065H9.80185C9.80185 1.03145 9.71657 1.51592 9.53045 2.16449C9.22027 3.25065 8.75498 4.11801 8.14236 4.76658C7.25058 5.71209 6.09514 6.34503 4.67604 6.66541C3.78426 6.86858 2.22558 7.01704 0 7.11862Z" fill="white"/>
<path fill-rule="evenodd" clip-rule="evenodd" d="M51.0648 4.13365C51.3129 4.10239 51.5223 4.03988 51.6851 3.92266C51.8557 3.80545 51.9333 3.64136 51.9333 3.43819C51.9333 3.03186 51.7161 2.75837 51.2896 2.6099C51.0415 2.52394 50.7003 2.47705 50.2738 2.47705C49.7852 2.47705 49.4285 2.57082 49.1881 2.76618C48.9477 2.96153 48.7849 3.25065 48.6841 3.64136H46.3654C46.474 2.85995 46.7066 2.24263 47.0788 1.79723C47.6915 1.07833 48.7383 0.718885 50.2117 0.718885C51.2974 0.718885 52.1271 0.820467 52.701 1.03145C53.7556 1.42215 54.2829 2.26607 54.2829 3.56322V7.74377C54.2829 8.07977 54.3139 8.36108 54.3837 8.5955C54.4535 8.82211 54.5931 8.97839 54.8102 9.05653V9.52538H52.2357C52.1737 9.37691 52.1271 9.22845 52.0884 9.07998C52.0496 8.93151 52.034 8.75178 52.034 8.5408C51.5688 8.9315 51.1811 9.205 50.8709 9.3691C50.3203 9.65822 49.7154 9.79887 49.0563 9.79887C47.8388 9.79887 46.9858 9.4316 46.4973 8.68927C46.2026 8.2673 46.0552 7.7672 46.0552 7.18114C46.0552 6.25126 46.4197 5.53237 47.1487 5.03227C47.6294 4.70408 48.3661 4.47747 49.3665 4.35244L51.0725 4.13365H51.0648ZM51.9333 5.25106C51.7704 5.35265 51.6153 5.43079 51.4835 5.47767C51.3517 5.52455 51.1345 5.57143 50.8476 5.61051L50.204 5.70428C49.5448 5.79805 49.0873 5.95433 48.8314 6.17313C48.5755 6.39192 48.4437 6.6576 48.4437 6.99361C48.4437 7.34524 48.5677 7.60311 48.8159 7.78284C49.064 7.96256 49.3742 8.04851 49.7619 8.04851C50.0799 8.04851 50.4211 7.97818 50.7856 7.84534C51.0182 7.73595 51.2121 7.62655 51.3439 7.50934C51.5145 7.39212 51.6541 7.24366 51.7471 7.07175C51.8402 6.89984 51.9022 6.57165 51.9333 6.1028V5.25106Z" fill="white"/>
<path d="M54.1432 10.5881H46.7065V12.2525H54.1432V10.5881Z" fill="white"/>
</svg>
