<svg width="328" height="67" viewBox="0 0 328 67" fill="none" xmlns="http://www.w3.org/2000/svg">
<path fill-rule="evenodd" clip-rule="evenodd" d="M203.781 46.9517C202.357 42.8779 201.609 38.3699 201.609 33.8205C201.609 28.9506 202.347 24.6184 203.781 20.5549C205.205 16.4502 207.193 12.8003 209.908 9.82253C212.592 6.61728 215.942 4.34259 219.855 2.55386C223.779 0.8375 228.072 0 233.092 0C238.112 0 242.486 0.8375 246.38 2.55386C250.262 4.35293 253.602 6.61728 256.307 9.81219C259.001 12.8003 261.009 16.4502 262.444 20.5549C263.909 24.608 264.605 28.9506 264.605 33.8205C264.605 38.3699 263.909 42.8779 262.444 46.9517C261.009 50.9427 258.991 54.3031 256.307 57.4566C253.582 60.3827 250.262 62.8022 246.369 64.4565C242.476 66.1005 238.05 67 233.092 67C228.133 67 223.779 66.0901 219.855 64.4565C215.942 62.8022 212.592 60.3931 209.908 57.467C207.193 54.3031 205.205 50.9531 203.781 46.9517ZM216.577 25.6937C215.983 28.3406 215.716 31.0289 215.716 33.8205H215.706C215.706 36.4881 215.973 39.135 216.567 41.7199C217.243 44.2531 218.288 46.3727 219.671 48.5026C221.013 50.6326 222.775 52.2352 225.05 53.4966C227.263 54.7063 229.947 55.2233 233.092 55.2233C236.278 55.2233 238.972 54.7167 241.155 53.4966C243.439 52.2352 245.16 50.6326 246.513 48.5026C247.927 46.3727 248.92 44.2531 249.545 41.7199C250.191 39.1247 250.519 36.4881 250.519 33.8102C250.519 31.0185 250.18 28.3096 249.545 25.6833C248.92 23.0364 247.927 20.6687 246.513 18.5284C245.16 16.5742 243.439 14.9716 241.155 13.7515C238.972 12.4901 236.278 11.756 233.092 11.756C229.957 11.7664 227.273 12.4901 225.06 13.7515C222.785 14.9716 221.023 16.5742 219.681 18.5284C218.298 20.679 217.253 23.0468 216.577 25.6937Z" fill="white"/>
<path d="M67.1244 2.92603H73.0357V64.7046H67.1244V2.92603Z" fill="white"/>
<path d="M86.8859 2.92603V64.7046H92.7767L92.7665 12.4694H92.9099L129.044 64.7046H135.642V2.92603H129.669V55.2336H129.505L93.4734 2.92603H86.8859Z" fill="white"/>
<path d="M148.46 64.7046V2.92603H191.201V7.84764H154.371L154.361 30.2327H188.804V35.2887L154.361 35.2783V59.6279H191.601V64.7046H148.46Z" fill="white"/>
<path d="M48.2639 21.682H54.2265C53.7347 18.3217 52.7819 15.4886 51.1735 12.9865C49.6777 10.4843 47.8336 8.5198 45.508 6.68971C43.2029 5.01471 40.6519 3.72227 37.8345 2.92613C35.0787 2.03693 32.2716 1.60267 29.3108 1.60267C24.4342 1.60267 20.1928 2.44017 16.4841 4.32196C12.7959 6.01764 9.83514 8.44743 7.36611 11.3838C4.91757 14.2892 3.15544 17.784 1.95678 21.682C0.686411 25.5593 0 29.6124 0 33.8413C0 38.0701 0.696656 42.1232 1.94654 46.0005C3.1452 49.8985 4.89708 53.4139 7.35587 56.2987C9.8249 59.1937 12.7857 61.6235 16.4739 63.3399C20.1928 65.2113 24.4239 65.9351 29.3005 65.9454C32.9272 65.9454 36.2261 65.4491 39.1254 64.2808C42.1272 63.102 44.6679 61.4994 46.9321 59.2764C49.2064 57.2706 50.9173 54.6754 52.2902 51.4391C53.6732 48.451 54.6465 44.9355 54.9743 41.0789H49.1655C48.8581 44.0567 48.1717 46.6726 47.0755 48.9162C46.092 51.3254 44.6577 53.507 43.0287 55.2337C41.41 56.9294 39.3303 58.3252 37.1379 59.4212C34.8021 60.5172 32.2101 60.9514 29.3108 60.9411C25.1923 60.9411 21.6988 60.3 18.7073 58.7595C15.6952 57.2396 13.2569 55.0889 11.4231 52.5351C9.64048 49.9295 8.17546 47.0655 7.30464 43.6948C6.37235 40.5102 5.99329 37.0879 5.99329 33.8413C5.99329 30.3465 6.37235 27.1309 7.30464 23.7809C8.1857 20.648 9.64048 17.7943 11.4231 15.2405C13.2569 12.6246 15.6952 10.4533 18.7073 8.93338C21.709 7.40314 25.1923 6.54496 29.321 6.54496C31.4622 6.54496 33.6854 7.04125 35.7139 7.63061C37.7731 8.37505 39.6684 9.16085 41.3793 10.443C43.0287 11.725 44.4835 13.2656 45.6412 15.2922C46.8808 17.0706 47.7926 19.2625 48.2639 21.682Z" fill="white"/>
<path fill-rule="evenodd" clip-rule="evenodd" d="M276.949 65.5835V1.4786H305.85C309.867 1.4786 313.247 2.10931 316.085 3.31904C318.923 4.46672 321.156 5.97629 322.959 7.80638C324.722 9.84326 326.012 11.8801 326.791 14.3616C327.6 16.8431 328 19.4073 328 22.0335C328 24.6184 327.6 27.193 326.791 29.7055C326.012 32.2076 324.722 34.2548 322.959 36.271C321.167 38.1011 318.923 39.6107 316.085 40.8308C313.258 41.9991 309.877 42.4954 305.85 42.4954H291.016V65.5835H276.949ZM291.016 12.5005V31.5976L291.006 31.6079H301.998C303.638 31.6079 305.164 31.5045 306.639 31.3081C308.135 31.1116 309.426 30.5119 310.594 29.9536C311.741 29.1368 312.684 28.3096 313.278 27.0585C314.067 25.7868 314.395 24.1738 314.395 22.0542C314.395 19.9139 314.067 18.332 313.278 17.0602C312.694 15.7988 311.752 14.9923 310.594 14.2272C309.436 13.6172 308.145 13.0175 306.65 12.8107C305.174 12.5936 303.648 12.5005 302.009 12.5005H291.016Z" fill="white"/>
</svg>
