<svg width="328" height="67" fill="none" xmlns="http://www.w3.org/2000/svg"><path fill-rule="evenodd" clip-rule="evenodd" d="M203.781 46.952c-1.424-4.074-2.172-8.582-2.172-13.131 0-4.87.738-9.203 2.172-13.266 1.424-4.105 3.412-7.755 6.127-10.732 2.684-3.206 6.034-5.48 9.947-7.27C223.779.838 228.072 0 233.092 0s9.394.838 13.288 2.554c3.882 1.799 7.222 4.063 9.927 7.258 2.694 2.988 4.702 6.638 6.137 10.743 1.465 4.053 2.161 8.396 2.161 13.266 0 4.549-.696 9.057-2.161 13.13-1.435 3.992-3.453 7.352-6.137 10.506-2.725 2.926-6.045 5.345-9.938 7C242.476 66.1 238.05 67 233.092 67c-4.959 0-9.313-.91-13.237-2.543a28.517 28.517 0 01-9.947-6.99c-2.715-3.164-4.703-6.514-6.127-10.515zm12.796-21.258c-.594 2.647-.861 5.335-.861 8.127h-.01c0 2.667.267 5.314.861 7.899.676 2.533 1.721 4.653 3.104 6.783 1.342 2.13 3.104 3.732 5.379 4.994 2.213 1.21 4.897 1.726 8.042 1.726 3.186 0 5.88-.506 8.063-1.726 2.284-1.262 4.005-2.864 5.358-4.994 1.414-2.13 2.407-4.25 3.032-6.783a32.63 32.63 0 00.974-7.91c0-2.792-.339-5.5-.974-8.127-.625-2.647-1.618-5.014-3.032-7.155a14.924 14.924 0 00-5.358-4.776c-2.183-1.262-4.877-1.996-8.063-1.996-3.135.01-5.819.734-8.032 1.995-2.275 1.22-4.037 2.823-5.379 4.777a24.177 24.177 0 00-3.104 7.166z" fill="#fff"/><path d="M67.124 2.926h5.912v61.779h-5.912V2.926zm19.762 0v61.779h5.89l-.01-52.236h.144l36.134 52.236h6.598V2.926h-5.973v52.308h-.164L93.473 2.926h-6.587zm61.574 61.779V2.926h42.741v4.922h-36.83l-.01 22.385h34.443v5.056l-34.443-.01v24.349h37.24v5.077H148.46zM48.264 21.682h5.962c-.491-3.36-1.444-6.193-3.053-8.695-1.495-2.503-3.34-4.467-5.665-6.297-2.305-1.675-4.856-2.968-7.674-3.764a27.42 27.42 0 00-8.523-1.323c-4.877 0-9.118.837-12.827 2.719-3.688 1.696-6.649 4.125-9.118 7.062-2.448 2.905-4.21 6.4-5.41 10.298A38.835 38.835 0 000 33.842C0 38.07.697 42.122 1.947 46c1.198 3.898 2.95 7.413 5.409 10.298 2.469 2.895 5.43 5.325 9.118 7.04 3.719 1.872 7.95 2.596 12.826 2.606 3.627 0 6.926-.496 9.825-1.664 3.002-1.179 5.543-2.782 7.807-5.005 2.274-2.005 3.985-4.6 5.358-7.837 1.383-2.988 2.357-6.504 2.684-10.36h-5.808c-.308 2.978-.994 5.594-2.09 7.837a20.74 20.74 0 01-4.047 6.318c-1.619 1.695-3.699 3.091-5.891 4.187-2.336 1.096-4.928 1.53-7.827 1.52-4.119 0-7.612-.641-10.604-2.181a20.009 20.009 0 01-7.284-6.225c-1.783-2.605-3.248-5.47-4.118-8.84-.933-3.185-1.312-6.607-1.312-9.854 0-3.495.38-6.71 1.312-10.06.88-3.133 2.335-5.987 4.118-8.54a19.64 19.64 0 017.284-6.308c3.002-1.53 6.485-2.388 10.614-2.388 2.141 0 4.364.496 6.393 1.086 2.06.744 3.954 1.53 5.665 2.812 1.65 1.282 3.105 2.823 4.262 4.85 1.24 1.778 2.152 3.97 2.623 6.389z" fill="#fff"/><path fill-rule="evenodd" clip-rule="evenodd" d="M276.949 65.584V1.478h28.901c4.017 0 7.397.63 10.235 1.84 2.838 1.148 5.071 2.657 6.874 4.487 1.763 2.037 3.053 4.074 3.832 6.556A24.625 24.625 0 01328 22.033c0 2.585-.4 5.16-1.209 7.672-.779 2.503-2.069 4.55-3.832 6.566-1.792 1.83-4.036 3.34-6.874 4.56-2.827 1.168-6.208 1.664-10.235 1.664h-14.834v23.089h-14.067zM291.016 12.5v19.098l-.01.01h10.992c1.64 0 3.166-.104 4.641-.3 1.496-.196 2.787-.796 3.955-1.354 1.147-.817 2.09-1.644 2.684-2.896.789-1.271 1.117-2.884 1.117-5.004 0-2.14-.328-3.722-1.117-4.994-.584-1.261-1.526-2.068-2.684-2.833-1.158-.61-2.449-1.21-3.944-1.416-1.476-.217-3.002-.31-4.641-.31h-10.993z" fill="#fff"/></svg>